<?xml version="1.0" encoding="UTF-8"?>
<svg width="30px" height="30px" viewBox="0 0 30 30" version="1.1" xmlns="http://www.w3.org/2000/svg" xmlns:xlink="http://www.w3.org/1999/xlink">
    <title>ic_tips_warning</title>
    <g id="效果图" stroke="none" stroke-width="1" fill="none" fill-rule="evenodd">
        <g id="切图" transform="translate(-423.000000, -486.000000)">
            <g id="ic_tips_warning" transform="translate(424.000000, 488.000000)">
                <path d="M15.67405,2.56087752 L25.9772317,18.322167 C26.5816131,19.2467192 26.3220633,20.4861649 25.397511,21.0905463 C25.0721591,21.3032294 24.691882,21.4164963 24.3031817,21.4164963 L3.69681831,21.4164963 C2.59224881,21.4164963 1.69681831,20.5210658 1.69681831,19.4164963 C1.69681831,19.0277959 1.81008524,18.6475189 2.02276833,18.322167 L12.32595,2.56087752 C12.9303314,1.63632524 14.169777,1.37677546 15.0943293,1.98115685 C15.3255282,2.13229193 15.5229149,2.32967867 15.67405,2.56087752 Z" id="三角形" fill="#FBD24B"></path>
                <path d="M14.2654049,16.1466899 C14.9630282,16.1466899 15.5308099,16.7144716 15.5308099,17.4120949 C15.5308099,18.1097181 14.9652289,18.6774998 14.2654049,18.6774998 C13.565581,18.6774998 13,18.1097181 13,17.4120949 C13,16.7144716 13.5677817,16.1466899 14.2654049,16.1466899 Z M14.2654049,7.41649628 C14.9652289,7.41649628 15.5308099,7.98427797 15.5308099,8.68190121 L15.5308099,13.7391195 C15.5308099,14.4389435 14.9630282,15.0045244 14.2654049,15.0045244 C13.565581,15.0045244 13,14.4367428 13,13.7391195 L13,8.68190121 C13,7.98207726 13.5677817,7.41649628 14.2654049,7.41649628 Z" id="形状结合" fill="#1E232D" fill-rule="nonzero"></path>
            </g>
        </g>
    </g>
</svg>